<?xml version="1.0" encoding="utf-8"?>
<!-- Generator: Adobe Illustrator 16.0.0, SVG Export Plug-In . SVG Version: 6.00 Build 0)  -->
<!DOCTYPE svg PUBLIC "-//W3C//DTD SVG 1.1//EN" "http://www.w3.org/Graphics/SVG/1.1/DTD/svg11.dtd">
<svg version="1.1" id="card_strip" xmlns="http://www.w3.org/2000/svg" xmlns:xlink="http://www.w3.org/1999/xlink" x="0px" y="0px"
	 width="2716px" height="280px" viewBox="0 0 2716 280" enable-background="new 0 0 2716 280" xml:space="preserve">
<rect id="white_background" fill="#FFFFFF" stroke="#000000" stroke-miterlimit="10" width="2716" height="280"/>
<g id="barion">
	<g>
		<rect id="SVGID_1_" x="20" y="21.341" fill="#1D95D3" width="562.656" height="237.955"/>
	</g>
	<g>
		<defs>
			<rect id="SVGID_2_" x="20" y="21.341" width="562.656" height="237.955"/>
		</defs>
		<clipPath id="SVGID_3_">
			<use xlink:href="#SVGID_2_"  overflow="visible"/>
		</clipPath>
		<path clip-path="url(#SVGID_3_)" fill="#1D95D3" d="M89.409,34.749c0,0-45.01,0-45.01,45.006v117.403c0,0,0,45.014,45.01,45.014
			h436.509c0,0,45.004,0,45.004-45.014V79.755c0,0,0-45.006-45.004-45.006H89.409z"/>
	</g>
	<g id="barion_1_">
		<path id="path26" fill="#FFFFFF" d="M496.739,186.255v-53.394c0-3.846-1.396-6.639-4.18-8.376
			c-2.787-1.737-6.263-2.61-10.422-2.61c-2.038,0-3.983,0.161-5.844,0.484c-1.858,0.321-3.405,0.706-4.647,1.166v62.73h-22.433
			v-71.791c3.983-1.556,8.894-2.86,14.733-3.914c5.846-1.052,12.171-1.577,18.987-1.577c11.77,0,20.753,1.895,26.952,5.697
			c6.194,3.794,9.293,9.772,9.293,17.917v53.668H496.739z"/>
		<path id="path30" fill="#FFFFFF" d="M298.096,186.255v-76.331c7.48,0,15.084,0.413,22.438,1.313v75.018H298.096z"/>
		<path id="path34_1_" fill="#FFFFFF" d="M321.725,89.753c0,2.743-1.219,5.104-3.653,7.07s-5.374,2.949-8.825,2.949
			s-6.375-0.983-8.761-2.949c-2.391-1.966-3.586-4.327-3.586-7.07c0-2.746,1.196-5.104,3.586-7.072
			c2.386-1.968,5.31-2.949,8.761-2.949s6.392,0.981,8.825,2.949C320.506,84.649,321.725,87.007,321.725,89.753"/>
		<path id="path38" fill="#FFFFFF" d="M284.179,123.935c-3.101-1.008-6.396-1.556-9.891-1.645c-3.5-0.094-6.353,0.366-8.564,1.37
			v62.597h-22.436v-71.793c4.16-1.74,9.006-3.089,14.534-4.052c5.532-0.958,12.324-1.439,20.382-1.439
			c1.77,0,3.628,0.041,5.576,0.137c1.946,0.092,3.495,0.229,4.648,0.411L284.179,123.935z"/>
		<path id="path42" fill="#FFFFFF" d="M149.762,145.9c0,12.905-3.674,22.949-11.021,30.136c-7.347,7.185-17.92,10.775-31.73,10.775
			c-7.077,0-13.12-0.525-18.118-1.581c-5.005-1.055-8.919-2.358-11.749-3.914V77.121h22.303v35.01
			c1.945-0.731,4.246-1.396,6.902-1.994c2.656-0.594,5.887-0.894,9.689-0.894c4.957,0,9.52,0.894,13.677,2.681
			c4.159,1.783,7.723,4.276,10.688,7.478c2.963,3.208,5.267,7.047,6.903,11.536C148.941,135.416,149.762,140.408,149.762,145.9
			 M126.923,147.141c0-3.664-0.307-7.074-0.928-10.232c-0.616-3.16-1.634-5.903-3.05-8.238c-1.418-2.331-3.211-4.139-5.378-5.418
			c-2.166-1.283-4.845-1.924-8.033-1.924c-4.159,0-7.523,0.598-10.087,1.787v49.555c0.974,0.456,2.167,0.822,3.582,1.098
			c1.418,0.274,3.142,0.41,5.179,0.41c6.286,0,10.972-2.469,14.073-7.408C125.378,161.828,126.923,155.283,126.923,147.141"/>
		<path id="path46" fill="#FFFFFF" d="M231.015,186.255c0,0.041-35.248,0.533-38.445,0.533c-5.114,0-9.824-0.859-14.132-2.572
			c-4.306-1.717-8.007-4.155-11.105-7.31c-3.092-3.152-5.517-6.984-7.265-11.483c-1.749-4.498-2.626-9.583-2.626-15.236
			c0-6.22,0.898-11.855,2.695-16.913c1.792-5.055,4.505-9.396,8.138-13.012c3.637-3.621,8.167-6.405,13.599-8.355
			c5.424-1.941,11.774-2.917,19.041-2.917c6.371,0,12.251,0.534,17.632,1.597c5.386,1.07,9.506,1.877,12.469,3.458V186.255z
			 M208.451,123.046c-0.987-0.47-2.195-0.882-3.634-1.258c-1.433-0.369-3.186-0.555-5.248-0.555c-6.371,0-11.126,2.37-14.268,7.098
			c-3.14,4.737-4.712,11.648-4.712,20.741c0,17.257,6.148,25.885,18.439,25.885c1.799,0,3.545-0.158,5.25-0.49
			c1.705-0.324,3.098-0.769,4.173-1.318V123.046z"/>
		<path id="path50" fill="#FFFFFF" d="M386.38,202.203c29.102-0.721,52.131-25.704,51.436-55.798
			c-0.243-10.407-3.289-20.06-8.371-28.206c-10.118-0.144-20.297,2.895-24.093,3.939c6.96,5.888,11.481,14.758,11.713,24.779
			c0.321,13.884-7.679,25.965-19.291,31.142c-1.238-2.983-1.701-4.098-2.915-7.01c-11.357,6.882-27.883,14.552-46.828,15.39
			C357.854,196.498,371.463,202.569,386.38,202.203"/>
		<path id="path54" fill="#FFFFFF" d="M383.847,93.202c-29.106,0.72-52.13,25.701-51.436,55.794
			c0.238,10.407,3.284,20.062,8.369,28.206c10.12,0.147,20.297-2.895,24.085-3.935c-6.951-5.892-11.477-14.763-11.704-24.784
			c-0.323-13.881,7.677-25.96,19.289-31.141c1.235,2.988,1.698,4.102,2.917,7.01c11.353-6.882,27.878-14.552,46.826-15.391
			C412.372,98.911,398.754,92.833,383.847,93.202"/>
	</g>
</g>
<path id="visa" display="none" fill="#2A2B6D" d="M827.201,67.396l-56.979,135.938h-37.177L705.002,94.843
	c-1.697-6.666-3.177-9.12-8.351-11.939c-8.456-4.593-22.42-8.889-34.694-11.562l0.828-3.947h59.851
	c7.617,0,14.474,5.072,16.217,13.854l14.818,78.668l36.579-92.521H827.201z M877.458,67.396l-29.08,135.938h-35.169l29.079-135.938
	H877.458z M972.859,158.951c0.146-35.872-49.599-37.86-49.273-53.888c0.12-4.874,4.758-10.062,14.92-11.387
	c5.032-0.65,18.933-1.17,34.683,6.086l6.162-28.843c-8.462-3.059-19.35-6.004-32.895-6.004c-34.767,0-59.225,18.465-59.417,44.93
	c-0.229,19.575,17.467,30.487,30.775,37.003c13.71,6.66,18.305,10.938,18.242,16.887c-0.099,9.123-10.948,13.161-21.036,13.309
	c-17.687,0.283-27.942-4.779-36.12-8.59l-6.383,29.799c8.228,3.771,23.393,7.046,39.099,7.215
	C948.577,205.467,972.749,187.213,972.859,158.951L972.859,158.951z M1064.667,203.334h32.516l-28.41-135.938h-30.002
	c-6.767,0-12.451,3.927-14.974,9.965l-52.773,125.973h36.933l7.326-20.308h45.121L1064.667,203.334z M1025.408,155.172
	l18.519-51.049l10.638,51.049H1025.408z"/>
<g id="mastercard">
	<rect x="1650.119" y="-16.333" fill="none" width="381.182" height="312.667"/>
	<g>
		<g>
			<path id="XMLID_1775_" fill="#010101" d="M1744.492,256.98v-15.578c0-5.869-3.738-9.813-9.762-9.865
				c-3.166-0.052-6.437,0.934-8.727,4.415c-1.711-2.755-4.41-4.415-8.201-4.415c-2.649,0-5.244,0.779-7.271,3.689v-3.065h-5.4
				v24.819h5.454v-13.76c0-4.311,2.386-6.596,6.072-6.596c3.585,0,5.403,2.337,5.403,6.542v13.813h5.451v-13.76
				c0-4.311,2.492-6.596,6.075-6.596c3.687,0,5.455,2.337,5.455,6.542v13.813H1744.492z M1825.182,232.161h-8.823v-7.531h-5.456
				v7.531h-5.035v4.933h5.035v11.319c0,5.763,2.233,9.189,8.622,9.189c2.338,0,5.036-0.727,6.75-1.919l-1.558-4.624
				c-1.609,0.938-3.378,1.403-4.774,1.403c-2.704,0-3.584-1.66-3.584-4.155v-11.214h8.823V232.161z M1871.239,231.537
				c-3.112,0-5.14,1.453-6.541,3.636v-3.012h-5.349v24.819h5.398v-13.917c0-4.102,1.769-6.388,5.297-6.388
				c1.09,0,2.232,0.156,3.375,0.626l1.662-5.09C1873.889,231.745,1872.331,231.537,1871.239,231.537L1871.239,231.537z
				 M1801.611,234.133c-2.597-1.712-6.183-2.596-10.128-2.596c-6.284,0-10.33,3.01-10.33,7.945c0,4.05,3.01,6.542,8.565,7.321
				l2.547,0.361c2.954,0.416,4.359,1.195,4.359,2.597c0,1.923-1.975,3.013-5.659,3.013c-3.74,0-6.439-1.193-8.255-2.597
				l-2.546,4.208c2.961,2.178,6.697,3.217,10.746,3.217c7.167,0,11.322-3.375,11.322-8.1c0-4.36-3.272-6.646-8.67-7.425
				l-2.547-0.363c-2.339-0.313-4.203-0.779-4.203-2.439c0-1.819,1.765-2.909,4.722-2.909c3.17,0,6.232,1.195,7.736,2.128
				L1801.611,234.133z M1946.273,231.537c-3.118,0-5.145,1.453-6.544,3.636v-3.012h-5.35v24.819h5.4v-13.917
				c0-4.102,1.765-6.388,5.298-6.388c1.09,0,2.23,0.156,3.373,0.626l1.662-5.09C1948.919,231.745,1947.363,231.537,1946.273,231.537
				L1946.273,231.537z M1876.692,244.569c0,7.53,5.246,13.033,13.241,13.033c3.737,0,6.23-0.829,8.931-2.959l-2.599-4.36
				c-2.022,1.453-4.154,2.229-6.488,2.229c-4.312-0.05-7.478-3.167-7.478-7.943c0-4.775,3.166-7.894,7.478-7.944
				c2.334,0,4.466,0.778,6.488,2.232l2.599-4.36c-2.7-2.131-5.193-2.96-8.931-2.96
				C1881.938,231.537,1876.692,237.042,1876.692,244.569L1876.692,244.569z M1927.268,244.569v-12.408h-5.401v3.012
				c-1.712-2.232-4.31-3.636-7.841-3.636c-6.957,0-12.41,5.452-12.41,13.032c0,7.583,5.453,13.033,12.41,13.033
				c3.531,0,6.129-1.401,7.841-3.633v3.011h5.401V244.569z M1907.171,244.569c0-4.361,2.858-7.944,7.53-7.944
				c4.467,0,7.476,3.429,7.476,7.944c0,4.518-3.009,7.943-7.476,7.943C1910.029,252.513,1907.171,248.931,1907.171,244.569
				L1907.171,244.569z M1842.006,231.537c-7.268,0-12.358,5.295-12.358,13.032c0,7.894,5.298,13.033,12.723,13.033
				c3.738,0,7.169-0.932,10.178-3.479l-2.647-4c-2.078,1.665-4.727,2.599-7.221,2.599c-3.479,0-6.643-1.612-7.426-6.077h18.438
				c0.051-0.675,0.102-1.349,0.102-2.076C1853.742,236.832,1848.963,231.537,1842.006,231.537L1842.006,231.537z M1841.902,236.366
				c3.48,0,5.711,2.181,6.281,6.022h-12.875C1835.88,238.806,1838.059,236.366,1841.902,236.366L1841.902,236.366z
				 M1977.376,244.569v-22.378h-5.403v12.981c-1.712-2.232-4.309-3.636-7.84-3.636c-6.958,0-12.409,5.452-12.409,13.032
				c0,7.583,5.451,13.033,12.409,13.033c3.531,0,6.128-1.401,7.84-3.633v3.011h5.403V244.569z M1957.279,244.569
				c0-4.361,2.854-7.944,7.527-7.944c4.466,0,7.48,3.429,7.48,7.944c0,4.518-3.015,7.943-7.48,7.943
				C1960.134,252.513,1957.279,248.931,1957.279,244.569L1957.279,244.569z M1774.921,244.569v-12.408h-5.402v3.012
				c-1.714-2.232-4.31-3.636-7.839-3.636c-6.96,0-12.411,5.452-12.411,13.032c0,7.583,5.451,13.033,12.411,13.033
				c3.529,0,6.125-1.401,7.839-3.633v3.011h5.402V244.569z M1754.826,244.569c0-4.361,2.857-7.944,7.526-7.944
				c4.47,0,7.479,3.429,7.479,7.944c0,4.518-3.009,7.943-7.479,7.943C1757.684,252.513,1754.826,248.931,1754.826,244.569z
				 M1986.377,253.384c0.346,0,0.672,0.065,0.978,0.191c0.302,0.13,0.569,0.306,0.796,0.531c0.227,0.224,0.406,0.485,0.539,0.786
				c0.128,0.301,0.196,0.617,0.196,0.957c0,0.337-0.068,0.659-0.196,0.956c-0.133,0.298-0.313,0.56-0.539,0.781
				c-0.227,0.227-0.494,0.402-0.796,0.534c-0.306,0.132-0.632,0.197-0.978,0.197c-0.355,0-0.687-0.065-0.997-0.197
				c-0.309-0.132-0.573-0.308-0.799-0.534c-0.228-0.222-0.404-0.483-0.538-0.781c-0.127-0.297-0.194-0.619-0.194-0.956
				c0-0.34,0.067-0.656,0.194-0.957c0.134-0.301,0.311-0.563,0.538-0.786c0.226-0.226,0.49-0.401,0.799-0.531
				C1985.69,253.449,1986.021,253.384,1986.377,253.384z M1986.377,257.772c0.267,0,0.513-0.051,0.743-0.149
				c0.23-0.102,0.431-0.239,0.604-0.415c0.174-0.172,0.309-0.373,0.406-0.606c0.099-0.234,0.151-0.483,0.151-0.752
				c0-0.267-0.053-0.514-0.151-0.75c-0.098-0.231-0.232-0.436-0.406-0.611c-0.174-0.172-0.374-0.309-0.604-0.406
				c-0.23-0.101-0.477-0.149-0.743-0.149c-0.271,0-0.523,0.049-0.763,0.149c-0.234,0.098-0.438,0.234-0.612,0.406
				c-0.173,0.176-0.311,0.38-0.405,0.611c-0.102,0.236-0.149,0.483-0.149,0.75c0,0.269,0.048,0.518,0.149,0.752
				c0.095,0.233,0.232,0.435,0.405,0.606c0.175,0.176,0.378,0.313,0.612,0.415C1985.854,257.722,1986.106,257.772,1986.377,257.772z
				 M1986.522,254.694c0.292,0,0.518,0.065,0.679,0.198c0.161,0.132,0.238,0.31,0.238,0.535c0,0.187-0.063,0.345-0.189,0.47
				c-0.127,0.121-0.307,0.195-0.541,0.224l0.748,0.865h-0.588l-0.694-0.86h-0.222v0.86h-0.488v-2.292H1986.522z M1985.953,255.124
				v0.612h0.562c0.129,0,0.231-0.025,0.308-0.075c0.077-0.051,0.116-0.129,0.116-0.233c0-0.103-0.039-0.179-0.116-0.229
				c-0.076-0.049-0.179-0.075-0.308-0.075H1985.953z"/>
		</g>
		<g id="XMLID_328_">
			<rect x="1799.814" y="43.007" fill="#F16022" width="81.789" height="146.985"/>
			<path id="XMLID_330_" fill="#E91D25" d="M1805.009,116.5c0-29.82,13.962-56.377,35.703-73.493
				c-15.902-12.516-35.962-19.984-57.769-19.984c-51.624,0-93.471,41.85-93.471,93.477c0,51.625,41.847,93.473,93.471,93.473
				c21.807,0,41.866-7.465,57.769-19.98C1818.971,172.875,1805.009,146.318,1805.009,116.5z"/>
			<path fill="#F69E1E" d="M1991.95,116.5c0,51.625-41.851,93.473-93.473,93.473c-21.806,0-41.866-7.465-57.766-19.98
				c21.741-17.117,35.701-43.674,35.701-73.493c0-29.82-13.96-56.377-35.701-73.493c15.899-12.516,35.96-19.984,57.766-19.984
				C1950.1,23.022,1991.95,64.873,1991.95,116.5z M1983.033,174.424v-3.011h1.212v-0.612h-3.09v0.612h1.213v3.011H1983.033z
				 M1989.032,174.424v-3.629h-0.948l-1.092,2.495l-1.086-2.495h-0.95v3.629h0.671v-2.737l1.022,2.358h0.689l1.024-2.364v2.743
				H1989.032z"/>
		</g>
	</g>
</g>
<g id="maestro">
	<rect x="2035.424" y="-16.333" fill="none" width="380.403" height="312.667"/>
	<g>
		<path d="M2165.94,256.419v-15.53c0-5.85-3.725-9.783-9.729-9.834c-3.157-0.05-6.418,0.932-8.696,4.399
			c-1.707-2.744-4.398-4.399-8.18-4.399c-2.638,0-5.225,0.777-7.245,3.676v-3.056h-5.385v24.744h5.438v-13.718
			c0-4.297,2.381-6.574,6.054-6.574c3.573,0,5.386,2.328,5.386,6.524v13.768h5.433v-13.718c0-4.297,2.484-6.574,6.057-6.574
			c3.677,0,5.435,2.328,5.435,6.524v13.768H2165.94z M2196.271,244.048v-12.373h-5.384v3.002c-1.709-2.225-4.296-3.622-7.813-3.622
			c-6.937,0-12.371,5.435-12.371,12.993c0,7.558,5.435,12.989,12.371,12.989c3.518,0,6.104-1.396,7.813-3.625v3.007h5.384V244.048z
			 M2176.241,244.048c0-4.35,2.845-7.921,7.505-7.921c4.451,0,7.453,3.416,7.453,7.921c0,4.501-3.002,7.918-7.453,7.918
			C2179.086,251.966,2176.241,248.396,2176.241,244.048z M2311.456,231.024c1.911,0,3.681,0.332,5.308,0.995
			c1.629,0.663,3.037,1.577,4.227,2.738c1.189,1.166,2.116,2.536,2.787,4.12c0.674,1.588,1.01,3.307,1.01,5.17
			c0,1.858-0.336,3.58-1.01,5.164c-0.671,1.589-1.598,2.961-2.787,4.125c-1.189,1.159-2.598,2.069-4.227,2.731
			c-1.627,0.666-3.396,0.997-5.308,0.997c-1.912,0-3.684-0.331-5.309-0.997c-1.629-0.662-3.032-1.572-4.212-2.731
			c-1.18-1.164-2.104-2.536-2.777-4.125c-0.673-1.584-1.008-3.306-1.008-5.164c0-1.863,0.335-3.582,1.008-5.17
			c0.673-1.584,1.598-2.954,2.777-4.12c1.18-1.161,2.583-2.075,4.212-2.738C2307.772,231.356,2309.544,231.024,2311.456,231.024z
			 M2311.456,236.116c-1.103,0-2.128,0.193-3.075,0.581c-0.945,0.388-1.766,0.927-2.454,1.626c-0.688,0.699-1.234,1.536-1.628,2.507
			c-0.396,0.974-0.594,2.044-0.594,3.218c0,1.17,0.198,2.242,0.594,3.215c0.394,0.972,0.94,1.809,1.628,2.504
			c0.688,0.7,1.509,1.241,2.454,1.63c0.947,0.386,1.973,0.584,3.075,0.584c1.101,0,2.128-0.198,3.073-0.584
			c0.948-0.389,1.77-0.93,2.467-1.63c0.697-0.695,1.246-1.532,1.641-2.504c0.398-0.973,0.596-2.045,0.596-3.215
			c0-1.174-0.197-2.244-0.596-3.218c-0.395-0.971-0.943-1.808-1.641-2.507s-1.519-1.238-2.467-1.626
			C2313.584,236.31,2312.557,236.116,2311.456,236.116z M2225.563,244.048c-0.049-7.713-4.811-12.993-11.748-12.993
			c-7.247,0-12.318,5.28-12.318,12.993c0,7.866,5.278,12.989,12.68,12.989c3.727,0,7.143-0.933,10.146-3.468l-2.64-3.984
			c-2.068,1.655-4.709,2.588-7.193,2.588c-3.471,0-6.627-1.605-7.404-6.055h18.375
			C2225.514,245.444,2225.563,244.77,2225.563,244.048z M2207.139,241.873c0.568-3.572,2.74-6.004,6.572-6.004
			c3.468,0,5.693,2.174,6.262,6.004H2207.139z M2248.233,237.988c-1.501-0.93-4.556-2.119-7.714-2.119
			c-2.949,0-4.707,1.085-4.707,2.897c0,1.658,1.861,2.122,4.192,2.433l2.534,0.361c5.385,0.778,8.646,3.055,8.646,7.402
			c0,4.713-4.141,8.074-11.285,8.074c-4.039,0-7.765-1.032-10.714-3.21l2.535-4.19c1.812,1.396,4.505,2.588,8.231,2.588
			c3.675,0,5.642-1.084,5.642-3.003c0-1.397-1.398-2.171-4.348-2.587l-2.538-0.364c-5.538-0.776-8.539-3.26-8.539-7.296
			c0-4.916,4.039-7.92,10.302-7.92c3.932,0,7.504,0.882,10.09,2.587L2248.233,237.988z M2274.1,236.593h-8.8v11.183
			c0,2.483,0.88,4.139,3.57,4.139c1.397,0,3.158-0.467,4.765-1.397l1.551,4.606c-1.709,1.189-4.399,1.914-6.728,1.914
			c-6.368,0-8.593-3.418-8.593-9.162v-11.282h-5.021v-4.918h5.021l-0.002-7.503h5.437v7.503h8.8V236.593z M2292.728,231.055
			c1.089,0,2.64,0.208,3.832,0.674l-1.659,5.072c-1.138-0.466-2.277-0.623-3.362-0.623c-3.521,0-5.28,2.277-5.28,6.368v13.873
			h-5.383v-24.744h5.334v3.002C2287.606,232.502,2289.622,231.055,2292.728,231.055L2292.728,231.055z M2329.994,252.814
			c0.346,0,0.673,0.067,0.977,0.193c0.304,0.132,0.568,0.304,0.795,0.53c0.227,0.224,0.408,0.481,0.539,0.786
			c0.13,0.299,0.196,0.618,0.196,0.951c0,0.34-0.066,0.659-0.196,0.956c-0.131,0.299-0.313,0.558-0.539,0.779
			c-0.227,0.224-0.491,0.4-0.795,0.531c-0.304,0.132-0.631,0.198-0.977,0.198c-0.354,0-0.684-0.066-0.992-0.198
			c-0.309-0.131-0.574-0.308-0.801-0.531c-0.225-0.222-0.4-0.48-0.534-0.779c-0.128-0.297-0.193-0.616-0.193-0.956
			c0-0.333,0.065-0.652,0.193-0.951c0.134-0.305,0.31-0.563,0.534-0.786c0.227-0.227,0.492-0.398,0.801-0.53
			C2329.311,252.882,2329.641,252.814,2329.994,252.814z M2329.994,257.199c0.268,0,0.514-0.052,0.742-0.152
			c0.233-0.101,0.432-0.237,0.604-0.409c0.175-0.172,0.309-0.379,0.408-0.614c0.099-0.231,0.148-0.48,0.148-0.748
			c0-0.264-0.05-0.512-0.148-0.743c-0.1-0.234-0.233-0.442-0.408-0.613c-0.172-0.173-0.37-0.31-0.604-0.406
			c-0.229-0.101-0.475-0.146-0.742-0.146c-0.269,0-0.521,0.046-0.758,0.146c-0.234,0.097-0.438,0.233-0.611,0.406
			c-0.174,0.171-0.309,0.379-0.407,0.613c-0.101,0.231-0.148,0.479-0.148,0.743c0,0.268,0.048,0.517,0.148,0.748
			c0.099,0.235,0.233,0.442,0.407,0.614s0.377,0.309,0.611,0.409C2329.474,257.147,2329.726,257.199,2329.994,257.199z
			 M2330.142,254.126c0.293,0,0.518,0.066,0.679,0.198c0.157,0.127,0.237,0.302,0.237,0.531c0,0.187-0.064,0.346-0.191,0.465
			c-0.126,0.128-0.307,0.203-0.537,0.229l0.745,0.867h-0.584l-0.693-0.861h-0.224v0.861h-0.487v-2.29H2330.142z M2329.573,254.551
			v0.614h0.56c0.129,0,0.232-0.026,0.309-0.076c0.075-0.051,0.115-0.128,0.115-0.233c0-0.101-0.04-0.178-0.115-0.229
			c-0.076-0.049-0.18-0.075-0.309-0.075H2329.573z"/>
		<g id="XMLID_12_">
			<rect x="2184.807" y="42.847" fill="#7773B5" width="81.637" height="146.709"/>
			<path id="XMLID_16_" fill="#E91D25" d="M2189.99,116.201c0-29.764,13.936-56.27,35.635-73.354
				c-15.871-12.492-35.893-19.948-57.659-19.948c-51.526,0-93.296,41.772-93.296,93.302c0,51.528,41.77,93.303,93.296,93.303
				c21.767,0,41.788-7.456,57.659-19.948C2203.926,172.47,2189.99,145.965,2189.99,116.201z"/>
			<path fill="#12A0DB" d="M2367.681,174.017v-3.003h1.208v-0.611h-3.081v0.611h1.21v3.003H2367.681z M2373.669,174.017v-3.621
				h-0.946l-1.089,2.489l-1.087-2.489h-0.946v3.621h0.668v-2.733l1.021,2.356h0.69l1.02-2.362v2.739H2373.669z"/>
			<path fill="#12A0DB" d="M2376.581,116.201c0,51.528-41.771,93.303-93.297,93.303c-21.764,0-41.788-7.456-57.659-19.948
				c21.7-17.086,35.635-43.591,35.635-73.354s-13.935-56.27-35.635-73.354c15.871-12.492,35.896-19.948,57.659-19.948
				C2334.81,22.899,2376.581,64.671,2376.581,116.201z"/>
		</g>
	</g>
</g>
<g id="amex">
	<polygon fill-rule="evenodd" clip-rule="evenodd" fill="#2E6EB7" points="2458,20 2696.315,20 2696.315,258.318 2458,258.318 
		2458,20 	"/>
	<polygon fill-rule="evenodd" clip-rule="evenodd" fill="#FFFFFF" points="2544.33,220.608 2544.33,135.214 2696.315,135.352 
		2696.315,158.94 2678.75,177.711 2696.315,196.655 2696.315,220.745 2668.268,220.745 2653.363,204.297 2638.563,220.808 
		2544.33,220.608 	"/>
	<polygon fill-rule="evenodd" clip-rule="evenodd" fill="#2E6EB7" points="2554.482,211.245 2554.482,144.611 2610.981,144.611 
		2610.981,159.961 2572.774,159.961 2572.774,170.383 2610.07,170.383 2610.07,185.477 2572.774,185.477 2572.774,195.711 
		2610.981,195.711 2610.981,211.245 2554.482,211.245 	"/>
	<polygon fill-rule="evenodd" clip-rule="evenodd" fill="#2E6EB7" points="2610.699,211.245 2641.962,177.89 2610.699,144.611 
		2634.896,144.611 2654,165.733 2673.158,144.611 2696.315,144.611 2696.315,145.137 2665.719,177.89 2696.315,210.299 
		2696.315,211.245 2672.925,211.245 2653.483,189.914 2634.239,211.245 2610.699,211.245 	"/>
	<polygon fill-rule="evenodd" clip-rule="evenodd" fill="#FFFFFF" points="2551.419,59.42 2588.055,59.42 2600.924,88.639 
		2600.924,59.42 2646.153,59.42 2653.952,81.312 2661.778,59.42 2696.315,59.42 2696.315,144.813 2513.792,144.813 2551.419,59.42 	
		"/>
	<path fill-rule="evenodd" clip-rule="evenodd" fill="#2E6EB7" d="M2558.355,68.698l-29.564,66.577h20.277l5.578-13.332h30.224
		l5.574,13.332h20.782l-29.442-66.577H2558.355L2558.355,68.698z M2560.896,107.001l8.867-21.194l8.86,21.194H2560.896
		L2560.896,107.001z"/>
	<polygon fill-rule="evenodd" clip-rule="evenodd" fill="#2E6EB7" points="2610.949,135.264 2610.949,68.687 2639.455,68.786 
		2654.12,109.715 2668.882,68.687 2696.315,68.687 2696.315,135.264 2678.663,135.418 2678.663,89.688 2662,135.264 
		2645.886,135.264 2628.877,89.532 2628.877,135.264 2610.949,135.264 	"/>
</g>
<g>
	<polygon fill="#FFFFFF" points="698.405,26.293 698.405,252.808 1080.25,252.808 1080.25,26.293 698.405,26.293 	"/>
	<polygon fill="#0058A0" points="761.655,104.355 783.923,188.394 809.773,188.394 849.992,91.065 823.772,91.065 798.437,157.147 
		788.025,105.436 761.655,104.355 	"/>
	<polygon fill="#0058A0" points="859.786,90.704 844.342,188.394 868.764,188.394 884.56,90.704 859.786,90.704 	"/>
	<path fill="#0058A0" d="M956.389,114.05l3.587-20.458c0,0-10.774-4.311-23.697-4.311c-12.934,0-40.944,8.259-40.944,32.31
		c0,24.065,34.834,25.143,34.834,38.422c0,13.291-31.24,11.857-40.582,3.245l-3.95,21.183c0,0,14.005,5.392,26.57,5.392
		c12.571,0,43.83-2.871,43.83-34.112c0-27.305-34.84-21.913-34.84-38.43C921.197,117.29,924.778,100.771,956.389,114.05
		L956.389,114.05z"/>
	<path fill="#0058A0" d="M954.586,188.394h26.933l4.676-14.007h33.032l2.751,13.884h23.347l-21.422-96.476h-21.549
		c0,0-7.901,0.898-11.488,10.413C987.454,111.254,954.586,188.394,954.586,188.394L954.586,188.394z"/>
	<polygon fill="#FFFFFF" points="1015.282,154.277 993.371,154.277 1007.025,118.364 1015.282,154.277 	"/>
	<path fill="#0058A0" d="M795.708,143.617l-7.684-38.182c0,0-1.041-14.341-11.258-14.341h-41.719v1.992
		C735.048,93.086,776.331,99.929,795.708,143.617L795.708,143.617z"/>
	<rect x="698.405" y="202.654" fill="#FAA61A" width="381.845" height="56.61"/>
	<rect x="698.405" y="20.364" fill="#0058A0" width="381.845" height="56.606"/>
</g>
<polygon fill="#FFFFFF" points="1201.25,26.331 1201.25,254.291 1585.528,254.291 1585.528,26.331 1201.25,26.331 "/>
<polygon fill="#FFFFFF" points="1520.147,155.132 1498.096,155.132 1511.837,118.989 1520.147,155.132 "/>
<rect x="1201.25" y="220" fill="#FAA61A" width="384.278" height="40.789"/>
<rect x="1201.25" y="20.365" fill="#0058A0" width="384.278" height="40.135"/>
<path fill="#0058A0" d="M1357.34,79.438l-37.354,89.11h-24.369l-18.381-71.117c-1.114-4.37-2.084-5.978-5.474-7.826
	c-5.546-3.012-14.698-5.828-22.744-7.58l0.542-2.588h39.234c4.993,0,9.488,3.326,10.63,9.082l9.714,51.569l23.978-60.651H1357.34z
	 M1390.285,79.438l-19.064,89.11h-23.055l19.063-89.11H1390.285z M1452.821,139.456c0.095-23.516-32.514-24.82-32.298-35.325
	c0.076-3.195,3.117-6.596,9.777-7.465c3.299-0.427,12.413-0.766,22.736,3.991l4.039-18.907c-5.547-2.008-12.685-3.938-21.563-3.938
	c-22.791,0-38.822,12.106-38.948,29.453c-0.152,12.83,11.449,19.983,20.175,24.256c8.985,4.365,11.999,7.169,11.957,11.071
	c-0.065,5.979-7.176,8.627-13.792,8.724c-11.591,0.185-18.314-3.134-23.676-5.631l-4.182,19.533
	c5.391,2.474,15.334,4.622,25.627,4.729C1436.903,169.947,1452.749,157.979,1452.821,139.456L1452.821,139.456z M1513.002,168.548
	h21.316l-18.622-89.11h-19.668c-4.437,0-8.163,2.575-9.816,6.534l-34.593,82.576h24.209l4.801-13.31h29.582L1513.002,168.548z
	 M1487.268,136.979l12.139-33.465l6.974,33.465H1487.268z M1419.788,193.078h-9.367v8.716h10.478v2.623h-13.635v-24.188h13.099
	v2.621h-9.941v7.641h9.367V193.078z M1425.738,178.938h3.159v25.476h-3.159V178.938z M1436.86,196.306
	c0.068,4.271,2.762,6.027,5.955,6.027c2.262,0,3.661-0.393,4.812-0.895l0.573,2.261c-1.114,0.501-3.051,1.111-5.817,1.111
	c-5.343,0-8.536-3.553-8.536-8.791c0-5.24,3.082-9.33,8.144-9.33c5.705,0,7.177,4.954,7.177,8.146c0,0.644-0.033,1.11-0.107,1.47
	H1436.86L1436.86,196.306z M1446.116,194.044c0.036-1.971-0.823-5.094-4.377-5.094c-3.229,0-4.593,2.906-4.846,5.094H1446.116z
	 M1466.35,203.804c-0.824,0.397-2.656,1.007-4.988,1.007c-5.237,0-8.646-3.553-8.646-8.864c0-5.347,3.657-9.257,9.327-9.257
	c1.868,0,3.515,0.465,4.378,0.935l-0.716,2.402c-0.758-0.396-1.941-0.828-3.662-0.828c-3.982,0-6.133,2.979-6.133,6.571
	c0,4.017,2.582,6.492,6.026,6.492c1.793,0,2.976-0.427,3.874-0.823L1466.35,203.804z M1475.207,182.885v4.165h4.52v2.399h-4.52
	v9.366c0,2.155,0.609,3.375,2.367,3.375c0.86,0,1.366-0.071,1.831-0.216l0.142,2.404c-0.606,0.216-1.577,0.432-2.797,0.432
	c-1.472,0-2.655-0.503-3.409-1.327c-0.86-0.971-1.219-2.513-1.219-4.559v-9.476h-2.693v-2.399h2.693v-3.232L1475.207,182.885z
	 M1484.138,192.468c0-2.046-0.039-3.804-0.146-5.418h2.765l0.145,3.44h0.105c0.79-2.33,2.728-3.801,4.843-3.801
	c0.323,0,0.576,0.035,0.864,0.07v2.979c-0.324-0.07-0.646-0.07-1.08-0.07c-2.222,0-3.804,1.648-4.23,4.019
	c-0.072,0.432-0.11,0.967-0.11,1.474v9.257h-3.155V192.468z M1512.122,195.587c0,6.425-4.487,9.224-8.648,9.224
	c-4.665,0-8.324-3.446-8.324-8.935c0-5.777,3.837-9.187,8.61-9.187C1508.75,186.689,1512.122,190.313,1512.122,195.587z
	 M1498.377,195.767c0,3.806,2.155,6.678,5.24,6.678c3.014,0,5.272-2.838,5.272-6.749c0-2.943-1.47-6.64-5.201-6.64
	C1499.992,189.056,1498.377,192.502,1498.377,195.767z M1516.959,191.747c0-1.829-0.035-3.262-0.144-4.697h2.8l0.182,2.868h0.068
	c0.861-1.615,2.872-3.229,5.743-3.229c2.4,0,6.135,1.436,6.135,7.391v10.334h-3.154v-10.01c0-2.799-1.041-5.132-4.022-5.132
	c-2.044,0-3.66,1.472-4.23,3.229c-0.148,0.396-0.22,0.933-0.22,1.471v10.441h-3.157V191.747z"/>
</svg>
